<svg width="20" height="23" viewBox="0 0 20 23" fill="none" xmlns="http://www.w3.org/2000/svg">
<path fill-rule="evenodd" clip-rule="evenodd" d="M1.50083 13.2871V13.0681C1.53295 12.4202 1.7406 11.7925 2.10236 11.2496C2.7045 10.5975 3.1167 9.79831 3.29571 8.93598C3.29571 8.2695 3.29571 7.5935 3.35393 6.92703C3.65469 3.71842 6.82728 1.5 9.96106 1.5H10.0387C13.1725 1.5 16.345 3.71842 16.6555 6.92703C16.7137 7.5935 16.6555 8.2695 16.704 8.93598C16.8854 9.8003 17.2972 10.6019 17.8974 11.2591C18.2618 11.7972 18.4698 12.4227 18.4989 13.0681V13.2776C18.5206 14.148 18.2208 14.9968 17.6548 15.6674C16.907 16.4515 15.8921 16.9393 14.8024 17.0384C11.607 17.3812 8.38303 17.3812 5.18762 17.0384C4.09914 16.935 3.08576 16.4479 2.33521 15.6674C1.778 14.9963 1.48224 14.1526 1.50083 13.2871Z" stroke="white" stroke-width="1.5" stroke-linecap="round" stroke-linejoin="round"/>
<path d="M7.55493 20.3518C8.05421 20.9785 8.78739 21.384 9.59222 21.4788C10.3971 21.5735 11.2072 21.3495 11.8433 20.8564C12.0389 20.7106 12.2149 20.541 12.3672 20.3518" stroke="white" stroke-width="1.5" stroke-linecap="round" stroke-linejoin="round"/>
</svg>
